<?xml version="1.0" encoding="UTF-8" standalone="no"?>
<!DOCTYPE svg PUBLIC "-//W3C//DTD SVG 1.1//EN"
 "http://www.w3.org/Graphics/SVG/1.1/DTD/svg11.dtd">
<!-- Generated by graphviz version 2.38.0 (20140413.2041)
 -->
<!-- Title: output Pages: 1 -->
<svg width="641pt" height="1996pt"
 viewBox="0.00 0.00 641.00 1995.80" xmlns="http://www.w3.org/2000/svg" xmlns:xlink="http://www.w3.org/1999/xlink">
<g id="graph0" class="graph" transform="scale(1 1) rotate(0) translate(4 1991.8)">
<title>output</title>
<polygon fill="white" stroke="none" points="-4,4 -4,-1991.8 637,-1991.8 637,4 -4,4"/>
<!-- Legend -->
<g id="node1" class="node"><title>Legend</title>
<polygon fill="#e0e0e0" stroke="none" points="8.5,-1933.3 8.5,-1956.3 209.5,-1956.3 209.5,-1933.3 8.5,-1933.3"/>
<polygon fill="none" stroke="black" points="8.5,-1933.3 8.5,-1956.3 209.5,-1956.3 209.5,-1933.3 8.5,-1933.3"/>
<text text-anchor="start" x="93" y="-1941.1" font-family="Times,serif" font-size="14.00">Layer</text>
<polygon fill="#88ffff" stroke="none" points="8.5,-1895.3 8.5,-1933.3 89.5,-1933.3 89.5,-1895.3 8.5,-1895.3"/>
<polygon fill="none" stroke="black" points="8.5,-1895.3 8.5,-1933.3 89.5,-1933.3 89.5,-1895.3 8.5,-1895.3"/>
<text text-anchor="start" x="12.5" y="-1918.1" font-family="Times,serif" font-size="14.00"> Complexity </text>
<text text-anchor="start" x="15" y="-1903.1" font-family="Times,serif" font-size="14.00"> (MFLOPs) </text>
<polygon fill="#ff88ff" stroke="none" points="89.5,-1895.3 89.5,-1933.3 164.5,-1933.3 164.5,-1895.3 89.5,-1895.3"/>
<polygon fill="none" stroke="black" points="89.5,-1895.3 89.5,-1933.3 164.5,-1933.3 164.5,-1895.3 89.5,-1895.3"/>
<text text-anchor="start" x="93.5" y="-1918.1" font-family="Times,serif" font-size="14.00"> Bandwidth </text>
<text text-anchor="start" x="103" y="-1903.1" font-family="Times,serif" font-size="14.00"> (MB/s) </text>
<polygon fill="#ffff88" stroke="none" points="164.5,-1895.3 164.5,-1933.3 209.5,-1933.3 209.5,-1895.3 164.5,-1895.3"/>
<polygon fill="none" stroke="black" points="164.5,-1895.3 164.5,-1933.3 209.5,-1933.3 209.5,-1895.3 164.5,-1895.3"/>
<text text-anchor="start" x="168.5" y="-1918.1" font-family="Times,serif" font-size="14.00"> Time </text>
<text text-anchor="start" x="172" y="-1903.1" font-family="Times,serif" font-size="14.00"> (ms)</text>
</g>
<!-- Input -->
<g id="node2" class="node"><title>Input</title>
<ellipse fill="none" stroke="black" cx="324.5" cy="-1926.3" rx="89.0842" ry="18"/>
<text text-anchor="middle" x="324.5" y="-1922.6" font-family="Times,serif" font-size="14.00">input: (1, 416, 416, 3)</text>
</g>
<!-- LeakyRelu/Maximum -->
<g id="node3" class="node"><title>LeakyRelu/Maximum</title>
<polygon fill="#a3a3a3" stroke="none" points="234.5,-1801.8 234.5,-1824.8 415.5,-1824.8 415.5,-1801.8 234.5,-1801.8"/>
<polygon fill="none" stroke="black" points="234.5,-1801.8 234.5,-1824.8 415.5,-1824.8 415.5,-1801.8 234.5,-1801.8"/>
<text text-anchor="start" x="264" y="-1809.6" font-family="Times,serif" font-size="14.00">LeakyRelu/Maximum</text>
<polygon fill="#dddddd" stroke="none" points="234.5,-1778.8 234.5,-1801.8 415.5,-1801.8 415.5,-1778.8 234.5,-1778.8"/>
<polygon fill="none" stroke="black" points="234.5,-1778.8 234.5,-1801.8 415.5,-1801.8 415.5,-1778.8 234.5,-1778.8"/>
<text text-anchor="start" x="285.5" y="-1786.6" font-family="Times,serif" font-size="14.00">(16, 416, 416)</text>
<polygon fill="#ffffff" stroke="none" points="234.5,-1740.8 234.5,-1778.8 315.5,-1778.8 315.5,-1740.8 234.5,-1740.8"/>
<polygon fill="none" stroke="black" points="234.5,-1740.8 234.5,-1778.8 315.5,-1778.8 315.5,-1740.8 234.5,-1740.8"/>
<text text-anchor="start" x="238.5" y="-1763.6" font-family="Times,serif" font-size="14.00"> 149.520384 </text>
<text text-anchor="start" x="241" y="-1748.6" font-family="Times,serif" font-size="14.00"> (MFLOPs) </text>
<polygon fill="#ffffff" stroke="none" points="315.5,-1740.8 315.5,-1778.8 375.5,-1778.8 375.5,-1740.8 315.5,-1740.8"/>
<polygon fill="none" stroke="black" points="315.5,-1740.8 315.5,-1778.8 375.5,-1778.8 375.5,-1740.8 315.5,-1740.8"/>
<text text-anchor="start" x="319.5" y="-1763.6" font-family="Times,serif" font-size="14.00"> 1175.24 </text>
<text text-anchor="start" x="321.5" y="-1748.6" font-family="Times,serif" font-size="14.00"> (MB/s) </text>
<polygon fill="#ffffb5" stroke="none" points="375.5,-1740.8 375.5,-1778.8 415.5,-1778.8 415.5,-1740.8 375.5,-1740.8"/>
<polygon fill="none" stroke="black" points="375.5,-1740.8 375.5,-1778.8 415.5,-1778.8 415.5,-1740.8 375.5,-1740.8"/>
<text text-anchor="start" x="379.5" y="-1763.6" font-family="Times,serif" font-size="14.00"> 7.58 </text>
<text text-anchor="start" x="380.5" y="-1748.6" font-family="Times,serif" font-size="14.00"> (ms)</text>
</g>
<!-- Input&#45;&gt;LeakyRelu/Maximum -->
<g id="edge1" class="edge"><title>Input&#45;&gt;LeakyRelu/Maximum</title>
<path fill="none" stroke="black" d="M324.5,-1908.23C324.5,-1891.05 324.5,-1863.61 324.5,-1838.87"/>
<polygon fill="black" stroke="black" points="328,-1838.83 324.5,-1828.83 321,-1838.83 328,-1838.83"/>
</g>
<!-- MaxPool -->
<g id="node4" class="node"><title>MaxPool</title>
<polygon fill="#a3a3a3" stroke="none" points="238.5,-1673.8 238.5,-1696.8 410.5,-1696.8 410.5,-1673.8 238.5,-1673.8"/>
<polygon fill="none" stroke="black" points="238.5,-1673.8 238.5,-1696.8 410.5,-1696.8 410.5,-1673.8 238.5,-1673.8"/>
<text text-anchor="start" x="299" y="-1681.6" font-family="Times,serif" font-size="14.00">MaxPool</text>
<polygon fill="#dddddd" stroke="none" points="238.5,-1650.8 238.5,-1673.8 410.5,-1673.8 410.5,-1650.8 238.5,-1650.8"/>
<polygon fill="none" stroke="black" points="238.5,-1650.8 238.5,-1673.8 410.5,-1673.8 410.5,-1650.8 238.5,-1650.8"/>
<text text-anchor="start" x="285" y="-1658.6" font-family="Times,serif" font-size="14.00">(16, 208, 208)</text>
<polygon fill="#ffffff" stroke="none" points="238.5,-1612.8 238.5,-1650.8 314.5,-1650.8 314.5,-1612.8 238.5,-1612.8"/>
<polygon fill="none" stroke="black" points="238.5,-1612.8 238.5,-1650.8 314.5,-1650.8 314.5,-1612.8 238.5,-1612.8"/>
<text text-anchor="start" x="247" y="-1635.6" font-family="Times,serif" font-size="14.00"> 2.768896 </text>
<text text-anchor="start" x="242.5" y="-1620.6" font-family="Times,serif" font-size="14.00"> (MFLOPs) </text>
<polygon fill="#ffffff" stroke="none" points="314.5,-1612.8 314.5,-1650.8 370.5,-1650.8 370.5,-1612.8 314.5,-1612.8"/>
<polygon fill="none" stroke="black" points="314.5,-1612.8 314.5,-1650.8 370.5,-1650.8 370.5,-1612.8 314.5,-1612.8"/>
<text text-anchor="start" x="319.5" y="-1635.6" font-family="Times,serif" font-size="14.00"> 792.37 </text>
<text text-anchor="start" x="318.5" y="-1620.6" font-family="Times,serif" font-size="14.00"> (MB/s) </text>
<polygon fill="#ffffb8" stroke="none" points="370.5,-1612.8 370.5,-1650.8 410.5,-1650.8 410.5,-1612.8 370.5,-1612.8"/>
<polygon fill="none" stroke="black" points="370.5,-1612.8 370.5,-1650.8 410.5,-1650.8 410.5,-1612.8 370.5,-1612.8"/>
<text text-anchor="start" x="374.5" y="-1635.6" font-family="Times,serif" font-size="14.00"> 6.67 </text>
<text text-anchor="start" x="375.5" y="-1620.6" font-family="Times,serif" font-size="14.00"> (ms)</text>
</g>
<!-- LeakyRelu/Maximum&#45;&gt;MaxPool -->
<g id="edge2" class="edge"><title>LeakyRelu/Maximum&#45;&gt;MaxPool</title>
<path fill="none" stroke="black" d="M324.5,-1736.67C324.5,-1728.44 324.5,-1719.76 324.5,-1711.27"/>
<polygon fill="black" stroke="black" points="328,-1711.04 324.5,-1701.04 321,-1711.04 328,-1711.04"/>
</g>
<!-- LeakyRelu_1/Maximum -->
<g id="node5" class="node"><title>LeakyRelu_1/Maximum</title>
<polygon fill="#a3a3a3" stroke="none" points="232.5,-1545.8 232.5,-1568.8 416.5,-1568.8 416.5,-1545.8 232.5,-1545.8"/>
<polygon fill="none" stroke="black" points="232.5,-1545.8 232.5,-1568.8 416.5,-1568.8 416.5,-1545.8 232.5,-1545.8"/>
<text text-anchor="start" x="256.5" y="-1553.6" font-family="Times,serif" font-size="14.00">LeakyRelu_1/Maximum</text>
<polygon fill="#dddddd" stroke="none" points="232.5,-1522.8 232.5,-1545.8 416.5,-1545.8 416.5,-1522.8 232.5,-1522.8"/>
<polygon fill="none" stroke="black" points="232.5,-1522.8 232.5,-1545.8 416.5,-1545.8 416.5,-1522.8 232.5,-1522.8"/>
<text text-anchor="start" x="285" y="-1530.6" font-family="Times,serif" font-size="14.00">(32, 208, 208)</text>
<polygon fill="#ffffff" stroke="none" points="232.5,-1484.8 232.5,-1522.8 313.5,-1522.8 313.5,-1484.8 232.5,-1484.8"/>
<polygon fill="none" stroke="black" points="232.5,-1484.8 232.5,-1522.8 313.5,-1522.8 313.5,-1484.8 232.5,-1484.8"/>
<text text-anchor="start" x="236.5" y="-1507.6" font-family="Times,serif" font-size="14.00"> 398.721024 </text>
<text text-anchor="start" x="239" y="-1492.6" font-family="Times,serif" font-size="14.00"> (MFLOPs) </text>
<polygon fill="#ffffff" stroke="none" points="313.5,-1484.8 313.5,-1522.8 369.5,-1522.8 369.5,-1484.8 313.5,-1484.8"/>
<polygon fill="none" stroke="black" points="313.5,-1484.8 313.5,-1522.8 369.5,-1522.8 369.5,-1484.8 313.5,-1484.8"/>
<text text-anchor="start" x="318.5" y="-1507.6" font-family="Times,serif" font-size="14.00"> 860.74 </text>
<text text-anchor="start" x="317.5" y="-1492.6" font-family="Times,serif" font-size="14.00"> (MB/s) </text>
<polygon fill="#ffffa2" stroke="none" points="369.5,-1484.8 369.5,-1522.8 416.5,-1522.8 416.5,-1484.8 369.5,-1484.8"/>
<polygon fill="none" stroke="black" points="369.5,-1484.8 369.5,-1522.8 416.5,-1522.8 416.5,-1484.8 369.5,-1484.8"/>
<text text-anchor="start" x="373.5" y="-1507.6" font-family="Times,serif" font-size="14.00"> 13.82 </text>
<text text-anchor="start" x="378" y="-1492.6" font-family="Times,serif" font-size="14.00"> (ms)</text>
</g>
<!-- MaxPool&#45;&gt;LeakyRelu_1/Maximum -->
<g id="edge3" class="edge"><title>MaxPool&#45;&gt;LeakyRelu_1/Maximum</title>
<path fill="none" stroke="black" d="M324.5,-1608.67C324.5,-1600.44 324.5,-1591.76 324.5,-1583.27"/>
<polygon fill="black" stroke="black" points="328,-1583.04 324.5,-1573.04 321,-1583.04 328,-1583.04"/>
</g>
<!-- MaxPool_1 -->
<g id="node6" class="node"><title>MaxPool_1</title>
<polygon fill="#a3a3a3" stroke="none" points="238.5,-1417.8 238.5,-1440.8 410.5,-1440.8 410.5,-1417.8 238.5,-1417.8"/>
<polygon fill="none" stroke="black" points="238.5,-1417.8 238.5,-1440.8 410.5,-1440.8 410.5,-1417.8 238.5,-1417.8"/>
<text text-anchor="start" x="292.5" y="-1425.6" font-family="Times,serif" font-size="14.00">MaxPool_1</text>
<polygon fill="#dddddd" stroke="none" points="238.5,-1394.8 238.5,-1417.8 410.5,-1417.8 410.5,-1394.8 238.5,-1394.8"/>
<polygon fill="none" stroke="black" points="238.5,-1394.8 238.5,-1417.8 410.5,-1417.8 410.5,-1394.8 238.5,-1394.8"/>
<text text-anchor="start" x="285" y="-1402.6" font-family="Times,serif" font-size="14.00">(32, 104, 104)</text>
<polygon fill="#ffffff" stroke="none" points="238.5,-1356.8 238.5,-1394.8 314.5,-1394.8 314.5,-1356.8 238.5,-1356.8"/>
<polygon fill="none" stroke="black" points="238.5,-1356.8 238.5,-1394.8 314.5,-1394.8 314.5,-1356.8 238.5,-1356.8"/>
<text text-anchor="start" x="247" y="-1379.6" font-family="Times,serif" font-size="14.00"> 1.384448 </text>
<text text-anchor="start" x="242.5" y="-1364.6" font-family="Times,serif" font-size="14.00"> (MFLOPs) </text>
<polygon fill="#ffffff" stroke="none" points="314.5,-1356.8 314.5,-1394.8 370.5,-1394.8 370.5,-1356.8 314.5,-1356.8"/>
<polygon fill="none" stroke="black" points="314.5,-1356.8 314.5,-1394.8 370.5,-1394.8 370.5,-1356.8 314.5,-1356.8"/>
<text text-anchor="start" x="319.5" y="-1379.6" font-family="Times,serif" font-size="14.00"> 928.35 </text>
<text text-anchor="start" x="318.5" y="-1364.6" font-family="Times,serif" font-size="14.00"> (MB/s) </text>
<polygon fill="#ffffc4" stroke="none" points="370.5,-1356.8 370.5,-1394.8 410.5,-1394.8 410.5,-1356.8 370.5,-1356.8"/>
<polygon fill="none" stroke="black" points="370.5,-1356.8 370.5,-1394.8 410.5,-1394.8 410.5,-1356.8 370.5,-1356.8"/>
<text text-anchor="start" x="374.5" y="-1379.6" font-family="Times,serif" font-size="14.00"> 2.84 </text>
<text text-anchor="start" x="375.5" y="-1364.6" font-family="Times,serif" font-size="14.00"> (ms)</text>
</g>
<!-- LeakyRelu_1/Maximum&#45;&gt;MaxPool_1 -->
<g id="edge4" class="edge"><title>LeakyRelu_1/Maximum&#45;&gt;MaxPool_1</title>
<path fill="none" stroke="black" d="M324.5,-1480.67C324.5,-1472.44 324.5,-1463.76 324.5,-1455.27"/>
<polygon fill="black" stroke="black" points="328,-1455.04 324.5,-1445.04 321,-1455.04 328,-1455.04"/>
</g>
<!-- LeakyRelu_2/Maximum -->
<g id="node7" class="node"><title>LeakyRelu_2/Maximum</title>
<polygon fill="#a3a3a3" stroke="none" points="236.5,-1289.8 236.5,-1312.8 413.5,-1312.8 413.5,-1289.8 236.5,-1289.8"/>
<polygon fill="none" stroke="black" points="236.5,-1289.8 236.5,-1312.8 413.5,-1312.8 413.5,-1289.8 236.5,-1289.8"/>
<text text-anchor="start" x="257" y="-1297.6" font-family="Times,serif" font-size="14.00">LeakyRelu_2/Maximum</text>
<polygon fill="#dddddd" stroke="none" points="236.5,-1266.8 236.5,-1289.8 413.5,-1289.8 413.5,-1266.8 236.5,-1266.8"/>
<polygon fill="none" stroke="black" points="236.5,-1266.8 236.5,-1289.8 413.5,-1289.8 413.5,-1266.8 236.5,-1266.8"/>
<text text-anchor="start" x="285.5" y="-1274.6" font-family="Times,serif" font-size="14.00">(64, 104, 104)</text>
<polygon fill="#ffffff" stroke="none" points="236.5,-1228.8 236.5,-1266.8 317.5,-1266.8 317.5,-1228.8 236.5,-1228.8"/>
<polygon fill="none" stroke="black" points="236.5,-1228.8 236.5,-1266.8 317.5,-1266.8 317.5,-1228.8 236.5,-1228.8"/>
<text text-anchor="start" x="240.5" y="-1251.6" font-family="Times,serif" font-size="14.00"> 398.721024 </text>
<text text-anchor="start" x="243" y="-1236.6" font-family="Times,serif" font-size="14.00"> (MFLOPs) </text>
<polygon fill="#ffffff" stroke="none" points="317.5,-1228.8 317.5,-1266.8 373.5,-1266.8 373.5,-1228.8 317.5,-1228.8"/>
<polygon fill="none" stroke="black" points="317.5,-1228.8 317.5,-1266.8 373.5,-1266.8 373.5,-1228.8 317.5,-1228.8"/>
<text text-anchor="start" x="322.5" y="-1251.6" font-family="Times,serif" font-size="14.00"> 647.61 </text>
<text text-anchor="start" x="321.5" y="-1236.6" font-family="Times,serif" font-size="14.00"> (MB/s) </text>
<polygon fill="#ffffb0" stroke="none" points="373.5,-1228.8 373.5,-1266.8 413.5,-1266.8 413.5,-1228.8 373.5,-1228.8"/>
<polygon fill="none" stroke="black" points="373.5,-1228.8 373.5,-1266.8 413.5,-1266.8 413.5,-1228.8 373.5,-1228.8"/>
<text text-anchor="start" x="377.5" y="-1251.6" font-family="Times,serif" font-size="14.00"> 9.23 </text>
<text text-anchor="start" x="378.5" y="-1236.6" font-family="Times,serif" font-size="14.00"> (ms)</text>
</g>
<!-- MaxPool_1&#45;&gt;LeakyRelu_2/Maximum -->
<g id="edge5" class="edge"><title>MaxPool_1&#45;&gt;LeakyRelu_2/Maximum</title>
<path fill="none" stroke="black" d="M324.5,-1352.67C324.5,-1344.44 324.5,-1335.76 324.5,-1327.27"/>
<polygon fill="black" stroke="black" points="328,-1327.04 324.5,-1317.04 321,-1327.04 328,-1327.04"/>
</g>
<!-- MaxPool_2 -->
<g id="node8" class="node"><title>MaxPool_2</title>
<polygon fill="#a3a3a3" stroke="none" points="238.5,-1161.8 238.5,-1184.8 410.5,-1184.8 410.5,-1161.8 238.5,-1161.8"/>
<polygon fill="none" stroke="black" points="238.5,-1161.8 238.5,-1184.8 410.5,-1184.8 410.5,-1161.8 238.5,-1161.8"/>
<text text-anchor="start" x="292.5" y="-1169.6" font-family="Times,serif" font-size="14.00">MaxPool_2</text>
<polygon fill="#dddddd" stroke="none" points="238.5,-1138.8 238.5,-1161.8 410.5,-1161.8 410.5,-1138.8 238.5,-1138.8"/>
<polygon fill="none" stroke="black" points="238.5,-1138.8 238.5,-1161.8 410.5,-1161.8 410.5,-1138.8 238.5,-1138.8"/>
<text text-anchor="start" x="292" y="-1146.6" font-family="Times,serif" font-size="14.00">(64, 52, 52)</text>
<polygon fill="#ffffff" stroke="none" points="238.5,-1100.8 238.5,-1138.8 314.5,-1138.8 314.5,-1100.8 238.5,-1100.8"/>
<polygon fill="none" stroke="black" points="238.5,-1100.8 238.5,-1138.8 314.5,-1138.8 314.5,-1100.8 238.5,-1100.8"/>
<text text-anchor="start" x="247" y="-1123.6" font-family="Times,serif" font-size="14.00"> 0.692224 </text>
<text text-anchor="start" x="242.5" y="-1108.6" font-family="Times,serif" font-size="14.00"> (MFLOPs) </text>
<polygon fill="#ffffff" stroke="none" points="314.5,-1100.8 314.5,-1138.8 370.5,-1138.8 370.5,-1100.8 314.5,-1100.8"/>
<polygon fill="none" stroke="black" points="314.5,-1100.8 314.5,-1138.8 370.5,-1138.8 370.5,-1100.8 314.5,-1100.8"/>
<text text-anchor="start" x="319.5" y="-1123.6" font-family="Times,serif" font-size="14.00"> 958.87 </text>
<text text-anchor="start" x="318.5" y="-1108.6" font-family="Times,serif" font-size="14.00"> (MB/s) </text>
<polygon fill="#ffffc8" stroke="none" points="370.5,-1100.8 370.5,-1138.8 410.5,-1138.8 410.5,-1100.8 370.5,-1100.8"/>
<polygon fill="none" stroke="black" points="370.5,-1100.8 370.5,-1138.8 410.5,-1138.8 410.5,-1100.8 370.5,-1100.8"/>
<text text-anchor="start" x="374.5" y="-1123.6" font-family="Times,serif" font-size="14.00"> 1.38 </text>
<text text-anchor="start" x="375.5" y="-1108.6" font-family="Times,serif" font-size="14.00"> (ms)</text>
</g>
<!-- LeakyRelu_2/Maximum&#45;&gt;MaxPool_2 -->
<g id="edge6" class="edge"><title>LeakyRelu_2/Maximum&#45;&gt;MaxPool_2</title>
<path fill="none" stroke="black" d="M324.5,-1224.67C324.5,-1216.44 324.5,-1207.76 324.5,-1199.27"/>
<polygon fill="black" stroke="black" points="328,-1199.04 324.5,-1189.04 321,-1199.04 328,-1199.04"/>
</g>
<!-- LeakyRelu_3/Maximum -->
<g id="node9" class="node"><title>LeakyRelu_3/Maximum</title>
<polygon fill="#a3a3a3" stroke="none" points="236.5,-1033.8 236.5,-1056.8 413.5,-1056.8 413.5,-1033.8 236.5,-1033.8"/>
<polygon fill="none" stroke="black" points="236.5,-1033.8 236.5,-1056.8 413.5,-1056.8 413.5,-1033.8 236.5,-1033.8"/>
<text text-anchor="start" x="257" y="-1041.6" font-family="Times,serif" font-size="14.00">LeakyRelu_3/Maximum</text>
<polygon fill="#dddddd" stroke="none" points="236.5,-1010.8 236.5,-1033.8 413.5,-1033.8 413.5,-1010.8 236.5,-1010.8"/>
<polygon fill="none" stroke="black" points="236.5,-1010.8 236.5,-1033.8 413.5,-1033.8 413.5,-1010.8 236.5,-1010.8"/>
<text text-anchor="start" x="289" y="-1018.6" font-family="Times,serif" font-size="14.00">(128, 52, 52)</text>
<polygon fill="#ffffff" stroke="none" points="236.5,-972.802 236.5,-1010.8 317.5,-1010.8 317.5,-972.802 236.5,-972.802"/>
<polygon fill="none" stroke="black" points="236.5,-972.802 236.5,-1010.8 317.5,-1010.8 317.5,-972.802 236.5,-972.802"/>
<text text-anchor="start" x="240.5" y="-995.602" font-family="Times,serif" font-size="14.00"> 398.721024 </text>
<text text-anchor="start" x="243" y="-980.602" font-family="Times,serif" font-size="14.00"> (MFLOPs) </text>
<polygon fill="#ffffff" stroke="none" points="317.5,-972.802 317.5,-1010.8 373.5,-1010.8 373.5,-972.802 317.5,-972.802"/>
<polygon fill="none" stroke="black" points="317.5,-972.802 317.5,-1010.8 373.5,-1010.8 373.5,-972.802 317.5,-972.802"/>
<text text-anchor="start" x="322.5" y="-995.602" font-family="Times,serif" font-size="14.00"> 401.67 </text>
<text text-anchor="start" x="321.5" y="-980.602" font-family="Times,serif" font-size="14.00"> (MB/s) </text>
<polygon fill="#ffffb5" stroke="none" points="373.5,-972.802 373.5,-1010.8 413.5,-1010.8 413.5,-972.802 373.5,-972.802"/>
<polygon fill="none" stroke="black" points="373.5,-972.802 373.5,-1010.8 413.5,-1010.8 413.5,-972.802 373.5,-972.802"/>
<text text-anchor="start" x="377.5" y="-995.602" font-family="Times,serif" font-size="14.00"> 7.75 </text>
<text text-anchor="start" x="378.5" y="-980.602" font-family="Times,serif" font-size="14.00"> (ms)</text>
</g>
<!-- MaxPool_2&#45;&gt;LeakyRelu_3/Maximum -->
<g id="edge7" class="edge"><title>MaxPool_2&#45;&gt;LeakyRelu_3/Maximum</title>
<path fill="none" stroke="black" d="M324.5,-1096.67C324.5,-1088.44 324.5,-1079.76 324.5,-1071.27"/>
<polygon fill="black" stroke="black" points="328,-1071.04 324.5,-1061.04 321,-1071.04 328,-1071.04"/>
</g>
<!-- MaxPool_3 -->
<g id="node10" class="node"><title>MaxPool_3</title>
<polygon fill="#a3a3a3" stroke="none" points="238.5,-905.802 238.5,-928.802 410.5,-928.802 410.5,-905.802 238.5,-905.802"/>
<polygon fill="none" stroke="black" points="238.5,-905.802 238.5,-928.802 410.5,-928.802 410.5,-905.802 238.5,-905.802"/>
<text text-anchor="start" x="292.5" y="-913.602" font-family="Times,serif" font-size="14.00">MaxPool_3</text>
<polygon fill="#dddddd" stroke="none" points="238.5,-882.802 238.5,-905.802 410.5,-905.802 410.5,-882.802 238.5,-882.802"/>
<polygon fill="none" stroke="black" points="238.5,-882.802 238.5,-905.802 410.5,-905.802 410.5,-882.802 238.5,-882.802"/>
<text text-anchor="start" x="288.5" y="-890.602" font-family="Times,serif" font-size="14.00">(128, 26, 26)</text>
<polygon fill="#ffffff" stroke="none" points="238.5,-844.802 238.5,-882.802 314.5,-882.802 314.5,-844.802 238.5,-844.802"/>
<polygon fill="none" stroke="black" points="238.5,-844.802 238.5,-882.802 314.5,-882.802 314.5,-844.802 238.5,-844.802"/>
<text text-anchor="start" x="247" y="-867.602" font-family="Times,serif" font-size="14.00"> 0.346112 </text>
<text text-anchor="start" x="242.5" y="-852.602" font-family="Times,serif" font-size="14.00"> (MFLOPs) </text>
<polygon fill="#ffffff" stroke="none" points="314.5,-844.802 314.5,-882.802 370.5,-882.802 370.5,-844.802 314.5,-844.802"/>
<polygon fill="none" stroke="black" points="314.5,-844.802 314.5,-882.802 370.5,-882.802 370.5,-844.802 314.5,-844.802"/>
<text text-anchor="start" x="319.5" y="-867.602" font-family="Times,serif" font-size="14.00"> 948.28 </text>
<text text-anchor="start" x="318.5" y="-852.602" font-family="Times,serif" font-size="14.00"> (MB/s) </text>
<polygon fill="#ffffca" stroke="none" points="370.5,-844.802 370.5,-882.802 410.5,-882.802 410.5,-844.802 370.5,-844.802"/>
<polygon fill="none" stroke="black" points="370.5,-844.802 370.5,-882.802 410.5,-882.802 410.5,-844.802 370.5,-844.802"/>
<text text-anchor="start" x="374.5" y="-867.602" font-family="Times,serif" font-size="14.00"> 0.70 </text>
<text text-anchor="start" x="375.5" y="-852.602" font-family="Times,serif" font-size="14.00"> (ms)</text>
</g>
<!-- LeakyRelu_3/Maximum&#45;&gt;MaxPool_3 -->
<g id="edge8" class="edge"><title>LeakyRelu_3/Maximum&#45;&gt;MaxPool_3</title>
<path fill="none" stroke="black" d="M324.5,-968.669C324.5,-960.436 324.5,-951.759 324.5,-943.268"/>
<polygon fill="black" stroke="black" points="328,-943.044 324.5,-933.044 321,-943.044 328,-943.044"/>
</g>
<!-- LeakyRelu_4/Maximum -->
<g id="node11" class="node"><title>LeakyRelu_4/Maximum</title>
<polygon fill="#a3a3a3" stroke="none" points="236.5,-777.802 236.5,-800.802 413.5,-800.802 413.5,-777.802 236.5,-777.802"/>
<polygon fill="none" stroke="black" points="236.5,-777.802 236.5,-800.802 413.5,-800.802 413.5,-777.802 236.5,-777.802"/>
<text text-anchor="start" x="257" y="-785.602" font-family="Times,serif" font-size="14.00">LeakyRelu_4/Maximum</text>
<polygon fill="#dddddd" stroke="none" points="236.5,-754.802 236.5,-777.802 413.5,-777.802 413.5,-754.802 236.5,-754.802"/>
<polygon fill="none" stroke="black" points="236.5,-754.802 236.5,-777.802 413.5,-777.802 413.5,-754.802 236.5,-754.802"/>
<text text-anchor="start" x="289" y="-762.602" font-family="Times,serif" font-size="14.00">(256, 26, 26)</text>
<polygon fill="#ffffff" stroke="none" points="236.5,-716.802 236.5,-754.802 317.5,-754.802 317.5,-716.802 236.5,-716.802"/>
<polygon fill="none" stroke="black" points="236.5,-716.802 236.5,-754.802 317.5,-754.802 317.5,-716.802 236.5,-716.802"/>
<text text-anchor="start" x="240.5" y="-739.602" font-family="Times,serif" font-size="14.00"> 398.721024 </text>
<text text-anchor="start" x="243" y="-724.602" font-family="Times,serif" font-size="14.00"> (MFLOPs) </text>
<polygon fill="#ffffff" stroke="none" points="317.5,-716.802 317.5,-754.802 373.5,-754.802 373.5,-716.802 317.5,-716.802"/>
<polygon fill="none" stroke="black" points="317.5,-716.802 317.5,-754.802 373.5,-754.802 373.5,-716.802 317.5,-716.802"/>
<text text-anchor="start" x="322.5" y="-739.602" font-family="Times,serif" font-size="14.00"> 212.01 </text>
<text text-anchor="start" x="321.5" y="-724.602" font-family="Times,serif" font-size="14.00"> (MB/s) </text>
<polygon fill="#ffffaf" stroke="none" points="373.5,-716.802 373.5,-754.802 413.5,-754.802 413.5,-716.802 373.5,-716.802"/>
<polygon fill="none" stroke="black" points="373.5,-716.802 373.5,-754.802 413.5,-754.802 413.5,-716.802 373.5,-716.802"/>
<text text-anchor="start" x="377.5" y="-739.602" font-family="Times,serif" font-size="14.00"> 9.68 </text>
<text text-anchor="start" x="378.5" y="-724.602" font-family="Times,serif" font-size="14.00"> (ms)</text>
</g>
<!-- MaxPool_3&#45;&gt;LeakyRelu_4/Maximum -->
<g id="edge9" class="edge"><title>MaxPool_3&#45;&gt;LeakyRelu_4/Maximum</title>
<path fill="none" stroke="black" d="M324.5,-840.669C324.5,-832.436 324.5,-823.759 324.5,-815.268"/>
<polygon fill="black" stroke="black" points="328,-815.044 324.5,-805.044 321,-815.044 328,-815.044"/>
</g>
<!-- MaxPool_4 -->
<g id="node12" class="node"><title>MaxPool_4</title>
<polygon fill="#a3a3a3" stroke="none" points="238.5,-649.802 238.5,-672.802 410.5,-672.802 410.5,-649.802 238.5,-649.802"/>
<polygon fill="none" stroke="black" points="238.5,-649.802 238.5,-672.802 410.5,-672.802 410.5,-649.802 238.5,-649.802"/>
<text text-anchor="start" x="292.5" y="-657.602" font-family="Times,serif" font-size="14.00">MaxPool_4</text>
<polygon fill="#dddddd" stroke="none" points="238.5,-626.802 238.5,-649.802 410.5,-649.802 410.5,-626.802 238.5,-626.802"/>
<polygon fill="none" stroke="black" points="238.5,-626.802 238.5,-649.802 410.5,-649.802 410.5,-626.802 238.5,-626.802"/>
<text text-anchor="start" x="288.5" y="-634.602" font-family="Times,serif" font-size="14.00">(256, 13, 13)</text>
<polygon fill="#ffffff" stroke="none" points="238.5,-588.802 238.5,-626.802 314.5,-626.802 314.5,-588.802 238.5,-588.802"/>
<polygon fill="none" stroke="black" points="238.5,-588.802 238.5,-626.802 314.5,-626.802 314.5,-588.802 238.5,-588.802"/>
<text text-anchor="start" x="247" y="-611.602" font-family="Times,serif" font-size="14.00"> 0.173056 </text>
<text text-anchor="start" x="242.5" y="-596.602" font-family="Times,serif" font-size="14.00"> (MFLOPs) </text>
<polygon fill="#ffffff" stroke="none" points="314.5,-588.802 314.5,-626.802 370.5,-626.802 370.5,-588.802 314.5,-588.802"/>
<polygon fill="none" stroke="black" points="314.5,-588.802 314.5,-626.802 370.5,-626.802 370.5,-588.802 314.5,-588.802"/>
<text text-anchor="start" x="319.5" y="-611.602" font-family="Times,serif" font-size="14.00"> 929.58 </text>
<text text-anchor="start" x="318.5" y="-596.602" font-family="Times,serif" font-size="14.00"> (MB/s) </text>
<polygon fill="#ffffcb" stroke="none" points="370.5,-588.802 370.5,-626.802 410.5,-626.802 410.5,-588.802 370.5,-588.802"/>
<polygon fill="none" stroke="black" points="370.5,-588.802 370.5,-626.802 410.5,-626.802 410.5,-588.802 370.5,-588.802"/>
<text text-anchor="start" x="374.5" y="-611.602" font-family="Times,serif" font-size="14.00"> 0.36 </text>
<text text-anchor="start" x="375.5" y="-596.602" font-family="Times,serif" font-size="14.00"> (ms)</text>
</g>
<!-- LeakyRelu_4/Maximum&#45;&gt;MaxPool_4 -->
<g id="edge10" class="edge"><title>LeakyRelu_4/Maximum&#45;&gt;MaxPool_4</title>
<path fill="none" stroke="black" d="M324.5,-712.669C324.5,-704.436 324.5,-695.759 324.5,-687.268"/>
<polygon fill="black" stroke="black" points="328,-687.044 324.5,-677.044 321,-687.044 328,-687.044"/>
</g>
<!-- LeakyRelu_5/Maximum -->
<g id="node13" class="node"><title>LeakyRelu_5/Maximum</title>
<polygon fill="#a3a3a3" stroke="none" points="236.5,-521.802 236.5,-544.802 413.5,-544.802 413.5,-521.802 236.5,-521.802"/>
<polygon fill="none" stroke="black" points="236.5,-521.802 236.5,-544.802 413.5,-544.802 413.5,-521.802 236.5,-521.802"/>
<text text-anchor="start" x="257" y="-529.602" font-family="Times,serif" font-size="14.00">LeakyRelu_5/Maximum</text>
<polygon fill="#dddddd" stroke="none" points="236.5,-498.802 236.5,-521.802 413.5,-521.802 413.5,-498.802 236.5,-498.802"/>
<polygon fill="none" stroke="black" points="236.5,-498.802 236.5,-521.802 413.5,-521.802 413.5,-498.802 236.5,-498.802"/>
<text text-anchor="start" x="289" y="-506.602" font-family="Times,serif" font-size="14.00">(512, 13, 13)</text>
<polygon fill="#ffffff" stroke="none" points="236.5,-460.802 236.5,-498.802 317.5,-498.802 317.5,-460.802 236.5,-460.802"/>
<polygon fill="none" stroke="black" points="236.5,-460.802 236.5,-498.802 317.5,-498.802 317.5,-460.802 236.5,-460.802"/>
<text text-anchor="start" x="240.5" y="-483.602" font-family="Times,serif" font-size="14.00"> 398.721024 </text>
<text text-anchor="start" x="243" y="-468.602" font-family="Times,serif" font-size="14.00"> (MFLOPs) </text>
<polygon fill="#ffffff" stroke="none" points="317.5,-460.802 317.5,-498.802 373.5,-498.802 373.5,-460.802 317.5,-460.802"/>
<polygon fill="none" stroke="black" points="317.5,-460.802 317.5,-498.802 373.5,-498.802 373.5,-460.802 317.5,-460.802"/>
<text text-anchor="start" x="322.5" y="-483.602" font-family="Times,serif" font-size="14.00"> 324.86 </text>
<text text-anchor="start" x="321.5" y="-468.602" font-family="Times,serif" font-size="14.00"> (MB/s) </text>
<polygon fill="#ffffb0" stroke="none" points="373.5,-460.802 373.5,-498.802 413.5,-498.802 413.5,-460.802 373.5,-460.802"/>
<polygon fill="none" stroke="black" points="373.5,-460.802 373.5,-498.802 413.5,-498.802 413.5,-460.802 373.5,-460.802"/>
<text text-anchor="start" x="377.5" y="-483.602" font-family="Times,serif" font-size="14.00"> 9.24 </text>
<text text-anchor="start" x="378.5" y="-468.602" font-family="Times,serif" font-size="14.00"> (ms)</text>
</g>
<!-- MaxPool_4&#45;&gt;LeakyRelu_5/Maximum -->
<g id="edge11" class="edge"><title>MaxPool_4&#45;&gt;LeakyRelu_5/Maximum</title>
<path fill="none" stroke="black" d="M324.5,-584.669C324.5,-576.436 324.5,-567.759 324.5,-559.268"/>
<polygon fill="black" stroke="black" points="328,-559.044 324.5,-549.044 321,-559.044 328,-559.044"/>
</g>
<!-- MaxPool_5 -->
<g id="node14" class="node"><title>MaxPool_5</title>
<polygon fill="#a3a3a3" stroke="none" points="238.5,-393.802 238.5,-416.802 410.5,-416.802 410.5,-393.802 238.5,-393.802"/>
<polygon fill="none" stroke="black" points="238.5,-393.802 238.5,-416.802 410.5,-416.802 410.5,-393.802 238.5,-393.802"/>
<text text-anchor="start" x="292.5" y="-401.602" font-family="Times,serif" font-size="14.00">MaxPool_5</text>
<polygon fill="#dddddd" stroke="none" points="238.5,-370.802 238.5,-393.802 410.5,-393.802 410.5,-370.802 238.5,-370.802"/>
<polygon fill="none" stroke="black" points="238.5,-370.802 238.5,-393.802 410.5,-393.802 410.5,-370.802 238.5,-370.802"/>
<text text-anchor="start" x="288.5" y="-378.602" font-family="Times,serif" font-size="14.00">(512, 13, 13)</text>
<polygon fill="#ffffff" stroke="none" points="238.5,-332.802 238.5,-370.802 314.5,-370.802 314.5,-332.802 238.5,-332.802"/>
<polygon fill="none" stroke="black" points="238.5,-332.802 238.5,-370.802 314.5,-370.802 314.5,-332.802 238.5,-332.802"/>
<text text-anchor="start" x="247" y="-355.602" font-family="Times,serif" font-size="14.00"> 0.346112 </text>
<text text-anchor="start" x="242.5" y="-340.602" font-family="Times,serif" font-size="14.00"> (MFLOPs) </text>
<polygon fill="#ffffff" stroke="none" points="314.5,-332.802 314.5,-370.802 370.5,-370.802 370.5,-332.802 314.5,-332.802"/>
<polygon fill="none" stroke="black" points="314.5,-332.802 314.5,-370.802 370.5,-370.802 370.5,-332.802 314.5,-332.802"/>
<text text-anchor="start" x="319.5" y="-355.602" font-family="Times,serif" font-size="14.00"> 449.93 </text>
<text text-anchor="start" x="318.5" y="-340.602" font-family="Times,serif" font-size="14.00"> (MB/s) </text>
<polygon fill="#ffffcb" stroke="none" points="370.5,-332.802 370.5,-370.802 410.5,-370.802 410.5,-332.802 370.5,-332.802"/>
<polygon fill="none" stroke="black" points="370.5,-332.802 370.5,-370.802 410.5,-370.802 410.5,-332.802 370.5,-332.802"/>
<text text-anchor="start" x="374.5" y="-355.602" font-family="Times,serif" font-size="14.00"> 0.37 </text>
<text text-anchor="start" x="375.5" y="-340.602" font-family="Times,serif" font-size="14.00"> (ms)</text>
</g>
<!-- LeakyRelu_5/Maximum&#45;&gt;MaxPool_5 -->
<g id="edge12" class="edge"><title>LeakyRelu_5/Maximum&#45;&gt;MaxPool_5</title>
<path fill="none" stroke="black" d="M324.5,-456.669C324.5,-448.436 324.5,-439.759 324.5,-431.268"/>
<polygon fill="black" stroke="black" points="328,-431.044 324.5,-421.044 321,-431.044 328,-431.044"/>
</g>
<!-- LeakyRelu_6/Maximum -->
<g id="node15" class="node"><title>LeakyRelu_6/Maximum</title>
<polygon fill="#a3a3a3" stroke="none" points="229.5,-265.802 229.5,-288.802 419.5,-288.802 419.5,-265.802 229.5,-265.802"/>
<polygon fill="none" stroke="black" points="229.5,-265.802 229.5,-288.802 419.5,-288.802 419.5,-265.802 229.5,-265.802"/>
<text text-anchor="start" x="256.5" y="-273.602" font-family="Times,serif" font-size="14.00">LeakyRelu_6/Maximum</text>
<polygon fill="#dddddd" stroke="none" points="229.5,-242.802 229.5,-265.802 419.5,-265.802 419.5,-242.802 229.5,-242.802"/>
<polygon fill="none" stroke="black" points="229.5,-242.802 229.5,-265.802 419.5,-265.802 419.5,-242.802 229.5,-242.802"/>
<text text-anchor="start" x="285" y="-250.602" font-family="Times,serif" font-size="14.00">(1024, 13, 13)</text>
<polygon fill="#ffffff" stroke="none" points="229.5,-204.802 229.5,-242.802 316.5,-242.802 316.5,-204.802 229.5,-204.802"/>
<polygon fill="none" stroke="black" points="229.5,-204.802 229.5,-242.802 316.5,-242.802 316.5,-204.802 229.5,-204.802"/>
<text text-anchor="start" x="233.5" y="-227.602" font-family="Times,serif" font-size="14.00"> 1594.884096 </text>
<text text-anchor="start" x="239" y="-212.602" font-family="Times,serif" font-size="14.00"> (MFLOPs) </text>
<polygon fill="#ffffff" stroke="none" points="316.5,-204.802 316.5,-242.802 372.5,-242.802 372.5,-204.802 316.5,-204.802"/>
<polygon fill="none" stroke="black" points="316.5,-204.802 316.5,-242.802 372.5,-242.802 372.5,-204.802 316.5,-204.802"/>
<text text-anchor="start" x="321.5" y="-227.602" font-family="Times,serif" font-size="14.00"> 312.56 </text>
<text text-anchor="start" x="320.5" y="-212.602" font-family="Times,serif" font-size="14.00"> (MB/s) </text>
<polygon fill="#ffff66" stroke="none" points="372.5,-204.802 372.5,-242.802 419.5,-242.802 419.5,-204.802 372.5,-204.802"/>
<polygon fill="none" stroke="black" points="372.5,-204.802 372.5,-242.802 419.5,-242.802 419.5,-204.802 372.5,-204.802"/>
<text text-anchor="start" x="376.5" y="-227.602" font-family="Times,serif" font-size="14.00"> 33.60 </text>
<text text-anchor="start" x="381" y="-212.602" font-family="Times,serif" font-size="14.00"> (ms)</text>
</g>
<!-- MaxPool_5&#45;&gt;LeakyRelu_6/Maximum -->
<g id="edge13" class="edge"><title>MaxPool_5&#45;&gt;LeakyRelu_6/Maximum</title>
<path fill="none" stroke="black" d="M324.5,-328.669C324.5,-320.436 324.5,-311.759 324.5,-303.268"/>
<polygon fill="black" stroke="black" points="328,-303.044 324.5,-293.044 321,-303.044 328,-303.044"/>
</g>
<!-- LeakyRelu_7/Maximum -->
<g id="node16" class="node"><title>LeakyRelu_7/Maximum</title>
<polygon fill="#a3a3a3" stroke="none" points="229.5,-137.802 229.5,-160.802 419.5,-160.802 419.5,-137.802 229.5,-137.802"/>
<polygon fill="none" stroke="black" points="229.5,-137.802 229.5,-160.802 419.5,-160.802 419.5,-137.802 229.5,-137.802"/>
<text text-anchor="start" x="256.5" y="-145.602" font-family="Times,serif" font-size="14.00">LeakyRelu_7/Maximum</text>
<polygon fill="#dddddd" stroke="none" points="229.5,-114.802 229.5,-137.802 419.5,-137.802 419.5,-114.802 229.5,-114.802"/>
<polygon fill="none" stroke="black" points="229.5,-114.802 229.5,-137.802 419.5,-137.802 419.5,-114.802 229.5,-114.802"/>
<text text-anchor="start" x="285" y="-122.602" font-family="Times,serif" font-size="14.00">(1024, 13, 13)</text>
<polygon fill="#ffffff" stroke="none" points="229.5,-76.8025 229.5,-114.802 316.5,-114.802 316.5,-76.8025 229.5,-76.8025"/>
<polygon fill="none" stroke="black" points="229.5,-76.8025 229.5,-114.802 316.5,-114.802 316.5,-76.8025 229.5,-76.8025"/>
<text text-anchor="start" x="233.5" y="-99.6025" font-family="Times,serif" font-size="14.00"> 3189.768192 </text>
<text text-anchor="start" x="239" y="-84.6025" font-family="Times,serif" font-size="14.00"> (MFLOPs) </text>
<polygon fill="#ffffff" stroke="none" points="316.5,-76.8025 316.5,-114.802 372.5,-114.802 372.5,-76.8025 316.5,-76.8025"/>
<polygon fill="none" stroke="black" points="316.5,-76.8025 316.5,-114.802 372.5,-114.802 372.5,-76.8025 316.5,-76.8025"/>
<text text-anchor="start" x="321.5" y="-99.6025" font-family="Times,serif" font-size="14.00"> 313.52 </text>
<text text-anchor="start" x="320.5" y="-84.6025" font-family="Times,serif" font-size="14.00"> (MB/s) </text>
<polygon fill="#ffff00" stroke="none" points="372.5,-76.8025 372.5,-114.802 419.5,-114.802 419.5,-76.8025 372.5,-76.8025"/>
<polygon fill="none" stroke="black" points="372.5,-76.8025 372.5,-114.802 419.5,-114.802 419.5,-76.8025 372.5,-76.8025"/>
<text text-anchor="start" x="376.5" y="-99.6025" font-family="Times,serif" font-size="14.00"> 66.94 </text>
<text text-anchor="start" x="381" y="-84.6025" font-family="Times,serif" font-size="14.00"> (ms)</text>
</g>
<!-- LeakyRelu_6/Maximum&#45;&gt;LeakyRelu_7/Maximum -->
<g id="edge14" class="edge"><title>LeakyRelu_6/Maximum&#45;&gt;LeakyRelu_7/Maximum</title>
<path fill="none" stroke="black" d="M324.5,-200.669C324.5,-192.436 324.5,-183.759 324.5,-175.268"/>
<polygon fill="black" stroke="black" points="328,-175.044 324.5,-165.044 321,-175.044 328,-175.044"/>
</g>
<!-- Output -->
<g id="node17" class="node"><title>Output</title>
<text text-anchor="middle" x="324.5" y="-15.1025" font-family="Times,serif" font-size="14.00">output: [13, 13, 125]</text>
</g>
<!-- LeakyRelu_7/Maximum&#45;&gt;Output -->
<g id="edge15" class="edge"><title>LeakyRelu_7/Maximum&#45;&gt;Output</title>
<path fill="none" stroke="black" d="M324.5,-72.5317C324.5,-63.8429 324.5,-54.9968 324.5,-47.0947"/>
<polygon fill="black" stroke="black" points="328,-47.0077 324.5,-37.0077 321,-47.0078 328,-47.0077"/>
</g>
<!-- Output&#45;&gt;Output -->
<g id="edge16" class="edge"><title>Output&#45;&gt;Output</title>
<path fill="none" stroke="black" d="M365.925,-36.8372C387.735,-39.7555 407.5,-33.7439 407.5,-18.8025 407.5,-6.19568 393.429,0.0538621 375.931,-0.0538621"/>
<polygon fill="black" stroke="black" points="375.65,3.4351 365.925,-0.767749 376.148,-3.54715 375.65,3.4351"/>
</g>
<!-- Summary -->
<g id="node18" class="node"><title>Summary</title>
<polygon fill="#c60000" stroke="none" points="440.5,-1960.3 440.5,-1983.3 625.5,-1983.3 625.5,-1960.3 440.5,-1960.3"/>
<polygon fill="none" stroke="black" points="440.5,-1960.3 440.5,-1983.3 625.5,-1983.3 625.5,-1960.3 440.5,-1960.3"/>
<text text-anchor="start" x="505.5" y="-1968.1" font-family="Times,serif" font-size="14.00">Summary</text>
<polygon fill="#e2e2e2" stroke="none" points="440.5,-1937.3 440.5,-1960.3 625.5,-1960.3 625.5,-1937.3 440.5,-1937.3"/>
<polygon fill="none" stroke="black" points="440.5,-1937.3 440.5,-1960.3 625.5,-1960.3 625.5,-1937.3 440.5,-1937.3"/>
<text text-anchor="start" x="480" y="-1945.1" font-family="Times,serif" font-size="14.00">12 SHV Processors</text>
<polygon fill="#dadada" stroke="none" points="440.5,-1914.3 440.5,-1937.3 625.5,-1937.3 625.5,-1914.3 440.5,-1914.3"/>
<polygon fill="none" stroke="black" points="440.5,-1914.3 440.5,-1937.3 625.5,-1937.3 625.5,-1914.3 440.5,-1914.3"/>
<text text-anchor="start" x="462" y="-1922.1" font-family="Times,serif" font-size="14.00">Inference time 171.51 ms</text>
<polygon fill="#e2e2e2" stroke="none" points="440.5,-1891.3 440.5,-1914.3 625.5,-1914.3 625.5,-1891.3 440.5,-1891.3"/>
<polygon fill="none" stroke="black" points="440.5,-1891.3 440.5,-1914.3 625.5,-1914.3 625.5,-1891.3 440.5,-1891.3"/>
<text text-anchor="start" x="459" y="-1899.1" font-family="Times,serif" font-size="14.00">Bandwidth 451.37 MB/sec</text>
<polygon fill="#dadada" stroke="none" points="440.5,-1868.3 440.5,-1891.3 625.5,-1891.3 625.5,-1868.3 440.5,-1868.3"/>
<polygon fill="none" stroke="black" points="440.5,-1868.3 440.5,-1891.3 625.5,-1891.3 625.5,-1868.3 440.5,-1868.3"/>
<text text-anchor="start" x="444.5" y="-1876.1" font-family="Times,serif" font-size="14.00">This network is Compute bound</text>
</g>
</g>
</svg>
